<?xml version="1.0" encoding="UTF-8" standalone="no"?>
<!-- Uploaded to: SVG Repo, www.svgrepo.com, Generator: SVG Repo Mixer Tools -->

<svg
   width="739.19934"
   height="739.19934"
   viewBox="0 0 946.17516 946.17516"
   class="icon"
   version="1.1"
   id="svg898"
   sodipodi:docname="donut.svg"
   inkscape:version="1.1.2 (0a00cf5339, 2022-02-04)"
   inkscape:export-filename="/home/jcreed/proj/recipe/donut2.png"
   inkscape:export-xdpi="83.116951"
   inkscape:export-ydpi="83.116951"
   xmlns:inkscape="http://www.inkscape.org/namespaces/inkscape"
   xmlns:sodipodi="http://sodipodi.sourceforge.net/DTD/sodipodi-0.dtd"
   xmlns="http://www.w3.org/2000/svg"
   xmlns:svg="http://www.w3.org/2000/svg">
  <defs
     id="defs902" />
  <sodipodi:namedview
     id="namedview900"
     pagecolor="#ffffff"
     bordercolor="#000000"
     borderopacity="0.25"
     inkscape:pageshadow="2"
     inkscape:pageopacity="0.0"
     inkscape:pagecheckerboard="0"
     showgrid="false"
     inkscape:zoom="1"
     inkscape:cx="461"
     inkscape:cy="476"
     inkscape:window-width="3830"
     inkscape:window-height="2117"
     inkscape:window-x="0"
     inkscape:window-y="18"
     inkscape:window-maximized="1"
     inkscape:current-layer="svg898" />
  <path
     d="m 473.09886,75.694012 c -219.4703,0 -397.39356,177.923258 -397.393559,397.393568 10e-7,219.4703 177.923259,397.39356 397.393559,397.39355 219.4703,0 397.39357,-177.92325 397.39357,-397.39355 0,-219.47031 -177.92327,-397.393568 -397.39357,-397.393568 z m 0,550.068558 c -89.37651,0 -161.8023,-72.42579 -161.8023,-161.8023 0,-89.37651 72.42579,-161.80231 161.8023,-161.80231 89.37651,0 161.8023,72.4258 161.8023,161.80231 0,89.37651 -72.48506,161.8023 -161.8023,161.8023 z"
     fill="#db9145"
     id="path880"
     inkscape:export-filename="/home/jcreed/proj/recipe/donut.png"
     inkscape:export-xdpi="66.493568"
     inkscape:export-ydpi="66.493568"
     style="stroke-width:0.84" />
  <path
     d="m 473.09886,75.694012 c -219.4703,0 -397.39356,177.923258 -397.393559,397.393568 0,49.2519 9.008773,96.31088 25.366809,139.81378 15.35047,-17.12852 38.40582,-42.61386 42.25826,-45.39947 5.86755,-4.26732 29.39704,-30.99729 44.86606,17.60266 6.40096,13.86877 26.19655,74.79652 71.59603,22.99608 8.00121,-7.4678 42.7324,-32.59753 44.86606,34.73119 0,43.79923 13.86877,95.06626 28.86363,100.93382 14.99487,5.86755 35.2646,10.66827 41.66558,-40.06533 4.80073,-13.86878 32.06412,-68.39555 66.7953,8.00121 16.53584,44.86606 29.93046,114.86185 66.79532,114.86185 36.86484,0 76.93017,-140.99914 88.66528,-165.06206 12.80194,-20.26973 42.19899,-49.66677 80.66408,-5.33413 21.92925,21.33656 49.66679,45.93289 51.80044,-23.5295 2.13366,-69.46238 5.33415,-75.32993 6.93439,-80.66407 1.60024,-5.33415 26.19657,-45.93289 67.32872,14.9356 10.72756,18.07681 28.21168,69.16603 49.48899,20.92169 10.96461,-36.3907 16.95071,-74.91507 16.95071,-114.86186 C 870.49243,253.61727 692.56916,75.694012 473.09886,75.694012 Z m 0,550.068558 c -89.37651,0 -161.8023,-72.42579 -161.8023,-161.8023 0,-89.37651 72.42579,-161.80231 161.8023,-161.80231 89.37651,0 161.8023,72.4258 161.8023,161.80231 0,89.37651 -72.48506,161.8023 -161.8023,161.8023 z"
     fill="#5b2b20"
     id="path882"
     style="stroke-width:0.84" />
</svg>
