<?xml version="1.0" encoding="UTF-8" standalone="no"?>
<!-- Uploaded to: SVG Repo, www.svgrepo.com, Generator: SVG Repo Mixer Tools -->

<svg
   width="739.19934"
   height="739.19934"
   viewBox="0 0 946.17516 946.17516"
   class="icon"
   version="1.1"
   id="svg898"
   sodipodi:docname="donut.svg"
   inkscape:version="1.1.2 (0a00cf5339, 2022-02-04)"
   inkscape:export-filename="/home/jcreed/proj/recipe/donut.png"
   inkscape:export-xdpi="66.493568"
   inkscape:export-ydpi="66.493568"
   xmlns:inkscape="http://www.inkscape.org/namespaces/inkscape"
   xmlns:sodipodi="http://sodipodi.sourceforge.net/DTD/sodipodi-0.dtd"
   xmlns="http://www.w3.org/2000/svg"
   xmlns:svg="http://www.w3.org/2000/svg">
  <defs
     id="defs902" />
  <sodipodi:namedview
     id="namedview900"
     pagecolor="#ffffff"
     bordercolor="#000000"
     borderopacity="0.25"
     inkscape:pageshadow="2"
     inkscape:pageopacity="0.0"
     inkscape:pagecheckerboard="0"
     showgrid="false"
     inkscape:zoom="1"
     inkscape:cx="461"
     inkscape:cy="476"
     inkscape:window-width="3830"
     inkscape:window-height="2117"
     inkscape:window-x="0"
     inkscape:window-y="18"
     inkscape:window-maximized="1"
     inkscape:current-layer="svg898" />
  <path
     d="m 473.0959,55.824334 c -230.44382,0 -417.263242,186.819416 -417.26324,417.263246 1e-6,230.44382 186.81942,417.26324 417.26324,417.26323 230.44381,0 417.26324,-186.81941 417.26324,-417.26323 0,-230.44383 -186.81943,-417.263246 -417.26324,-417.263246 z m 0,577.571986 c -93.84534,0 -169.89242,-76.04708 -169.89242,-169.89242 0,-93.84533 76.04708,-169.89242 169.89242,-169.89242 93.84533,0 169.89241,76.04709 169.89241,169.89242 0,93.84534 -76.10931,169.89242 -169.89241,169.89242 z"
     fill="#db9145"
     id="path880"
     inkscape:export-filename="/home/jcreed/proj/recipe/donut.png"
     inkscape:export-xdpi="66.493568"
     inkscape:export-ydpi="66.493568"
     style="stroke-width:0.882" />
  <path
     d="m 473.0959,55.824334 c -230.44382,0 -417.263242,186.819416 -417.26324,417.263246 0,51.7145 9.459211,101.12642 26.635149,146.80447 16.117993,-17.98495 40.326111,-44.74455 44.371171,-47.66944 6.16093,-4.48069 30.86689,-32.54716 47.10936,18.48279 6.72101,14.56221 27.50638,78.53634 75.17584,24.14588 8.40127,-7.84119 44.86902,-34.2274 47.10936,36.46775 0,45.98919 14.56221,99.81958 30.30681,105.98051 15.74461,6.16093 37.02783,11.20169 43.74886,-42.06859 5.04077,-14.56222 33.66733,-71.81533 70.13506,8.40127 17.36264,47.10936 31.42699,120.60494 70.13509,120.60494 38.70808,0 80.77668,-148.0491 93.09854,-173.31516 13.44204,-21.28322 44.30894,-52.15011 84.69729,-5.60084 23.02571,22.40339 52.15013,48.22953 54.39046,-24.70597 2.24034,-72.9355 5.60086,-79.09643 7.28111,-84.69728 1.68025,-5.60086 27.5064,-48.22953 70.69516,15.68238 11.26393,18.98065 29.62226,72.62433 51.96344,21.96778 C 884.1982,555.35783 890.4836,514.90724 890.4836,472.96311 890.35914,242.64375 703.53971,55.824334 473.0959,55.824334 Z m 0,577.571986 c -93.84534,0 -169.89242,-76.04708 -169.89242,-169.89242 0,-93.84533 76.04708,-169.89242 169.89242,-169.89242 93.84533,0 169.89241,76.04709 169.89241,169.89242 0,93.84534 -76.10931,169.89242 -169.89241,169.89242 z"
     fill="#5b2b20"
     id="path882"
     style="stroke-width:0.882" />
</svg>
