<?xml version="1.0" encoding="UTF-8" standalone="no"?>
<!-- Uploaded to: SVG Repo, www.svgrepo.com, Generator: SVG Repo Mixer Tools -->

<svg
   width="739.19934"
   height="739.19934"
   viewBox="0 0 946.17516 946.17516"
   class="icon"
   version="1.1"
   id="svg898"
   sodipodi:docname="donut.svg"
   inkscape:version="1.1.2 (0a00cf5339, 2022-02-04)"
   inkscape:export-filename="/home/jcreed/proj/recipe/donut2.png"
   inkscape:export-xdpi="83.116951"
   inkscape:export-ydpi="83.116951"
   xmlns:inkscape="http://www.inkscape.org/namespaces/inkscape"
   xmlns:sodipodi="http://sodipodi.sourceforge.net/DTD/sodipodi-0.dtd"
   xmlns="http://www.w3.org/2000/svg"
   xmlns:svg="http://www.w3.org/2000/svg">
  <defs
     id="defs902" />
  <sodipodi:namedview
     id="namedview900"
     pagecolor="#ffffff"
     bordercolor="#000000"
     borderopacity="0.25"
     inkscape:pageshadow="2"
     inkscape:pageopacity="0.0"
     inkscape:pagecheckerboard="0"
     showgrid="false"
     inkscape:zoom="1.16625"
     inkscape:cx="460.45016"
     inkscape:cy="475.88424"
     inkscape:window-width="3830"
     inkscape:window-height="2117"
     inkscape:window-x="0"
     inkscape:window-y="18"
     inkscape:window-maximized="1"
     inkscape:current-layer="svg898" />
  <path
     d="m 473.10168,94.617515 c -209.01933,0 -378.470055,169.450725 -378.470054,378.470065 10e-7,209.01933 169.450724,378.47006 378.470054,378.47005 209.01934,0 378.47007,-169.45072 378.47007,-378.47005 0,-209.01934 -169.45073,-378.470065 -378.47007,-378.470065 z m 0,523.874815 c -85.12048,0 -154.09743,-68.97694 -154.09743,-154.09743 0,-85.12048 68.97695,-154.09743 154.09743,-154.09743 85.12049,0 154.09743,68.97695 154.09743,154.09743 0,85.12049 -69.03339,154.09743 -154.09743,154.09743 z"
     fill="#db9145"
     id="path880"
     inkscape:export-filename="/home/jcreed/proj/recipe/donut.png"
     inkscape:export-xdpi="66.493568"
     inkscape:export-ydpi="66.493568"
     style="stroke-width:0.8" />
  <path
     d="m 473.10168,94.617515 c -209.01933,0 -378.470055,169.450725 -378.470054,378.470065 0,46.90657 8.579784,91.72465 24.158864,133.15598 14.6195,-16.31288 36.57697,-40.58463 40.24596,-43.23759 5.58815,-4.06411 27.99718,-29.52123 42.72958,16.76444 6.09616,13.20835 24.9491,71.23478 68.1867,21.90103 7.6202,-7.11219 40.69752,-31.04527 42.72958,33.07732 0,41.71355 13.20835,90.5393 27.48917,96.12745 14.28083,5.58814 33.58534,10.16026 39.68151,-38.15746 4.57212,-13.20836 30.53725,-65.13862 63.61457,7.6202 15.74842,42.72958 28.5052,109.39224 63.61459,109.39224 35.10937,0 73.26683,-134.2849 84.44312,-157.20196 12.19233,-19.30451 40.18952,-47.30169 76.82294,-5.08013 20.885,20.32054 47.3017,43.74561 49.33375,-22.40904 2.03206,-66.15465 5.08014,-71.74279 6.60418,-76.82293 1.52404,-5.08014 24.94911,-43.74561 64.12259,14.22438 10.21672,17.21601 26.86827,65.87241 47.13237,19.92542 10.44249,-34.65781 16.14353,-71.34768 16.14353,-109.39225 C 851.57175,264.06824 682.12102,94.617515 473.10168,94.617515 Z m 0,523.874815 c -85.12048,0 -154.09743,-68.97694 -154.09743,-154.09743 0,-85.12048 68.97695,-154.09743 154.09743,-154.09743 85.12049,0 154.09743,68.97695 154.09743,154.09743 0,85.12049 -69.03339,154.09743 -154.09743,154.09743 z"
     fill="#5b2b20"
     id="path882"
     style="stroke-width:0.8" />
</svg>
